<svg xmlns="http://www.w3.org/2000/svg" width="141.592" height="134.323" viewBox="0 0 141.592 134.323">
  <g id="Group_5" data-name="Group 5" transform="translate(0 0)">
    <path id="Path_7" data-name="Path 7" d="M51.513,101.419l1.721-1.765L51.6,99.283l7.417-6.349-.267-.312-7.417,6.112-.267-.267,7.64-7.031-.1-.4a3.634,3.634,0,0,0-1.231.386c-4.88,3.694-9.731,7.417-14.6,11.14a10.933,10.933,0,0,1-2.789,1.661l.92-.875C46.024,98.1,52.344,94.358,58,89.774a.7.7,0,0,0,.134-.712c-2.017,1.483-3.842,3.575-6.112,4.287-3.887,1.216-6.542,4.065-9.761,6.127-5.1,3.264-9.969,6.883-14.953,10.384a2.225,2.225,0,0,1-1.483.43L51.913,92.029C44.5,95.2,38.147,100.277,31.25,104.371L31.012,104,54.153,88.677l-.148-.252-10.087,6.29-.178-.267,1.721-1.261-.119-.208-14.033,8.411-.223-.341c.549-.371,1.068-.786,1.632-1.127,6.987-4.213,13.989-8.4,20.975-12.624a10.191,10.191,0,0,0,1.632-1.661l-.312-.371a11.764,11.764,0,0,1-2.67,1.32A42.382,42.382,0,0,0,41,91.6l.771-1.231-1.394.564-.193-.386,13.9-7.417-.267-.534L46.4,86.036l-.252-.415,4.45-2.833-.089-.178L38.919,87.7l-.178-.4,9.954-4.45-.193-.5L36.249,87.208l-.134-.356,15.131-7.046v-.237L23.209,89.952l-.223-.415A27.766,27.766,0,0,1,25.642,88.2c4.94-1.81,9.894-3.56,14.73-5.652l-10.8,3.738-.148-.341,7.061-2.507-.148-.415-7.7,2.433L28.52,85.1l19.848-6.764L48.22,77.8l-3.531,1.038c-.312.089-.682.445-.89.356-2.388-1.083-4.45.119-6.72.668a2.275,2.275,0,0,1-.831-.252l14.33-4.079v-.1l-20.13,3.976-.1-.341,18.632-4.673-.119-.653a9.47,9.47,0,0,0-1.587.193,11.481,11.481,0,0,1-1.765.223L50.89,71.84l-.267-.742-5.934,1.157-.089-.49,7.239-1.483-.074-.386L35.6,72.314v-.3l15.235-2.967v-.386L30.063,71.024v-.43l20.9-2.492v-.415a37.248,37.248,0,0,0-3.857,0c-5.325.43-10.621.935-15.932,1.38a2.73,2.73,0,0,1-1.825-.415c7.536-1.038,15.116-1.335,22.637-2.181v-.593l-2-.549.875-.682a.653.653,0,0,0-.223-.148c-8.455-2.166-17.089-.742-25.619-1.291a3.456,3.456,0,0,1-1.75-.415H48.16a9.969,9.969,0,0,0,1.958-.43v-.445L16,60.195V59.75l35.6,1.6c.134-.86.134-.86-2.537-2.433H50.7v-.386l-5.474-.8v-.326l4.243.415v-.356l-6.349-1.038v-.163l7-.237v-.415L24.337,50.686l.074-.46,24.506,4.717.119-.534c-2.833-.623-5.652-1.261-8.485-1.869-1.676-.371-3.4-.534-4.45-2.166-.178-.282-.771-.3-1.2-.386L20.376,46.533a1.038,1.038,0,0,1-.816-.653l25.322,5.934.1-.415L27.63,46.948l.119-.445,14.107,3.486L40.64,48.921l11.452,3.056.134-.475-12.1-3.694.119-.4,12.194,3.471.119-.371c-.8-.3-1.6-.608-2.418-.875-1.691-.564-3.456-.979-5.088-1.676-3.1-1.32-6.141-2.789-9.182-4.361l4.05,1.365.1-.208-1.157-.712.074-.223,1.276.371c4.361,1.38,8.708,2.744,13.262,3.8l-2.7-1.691,2.878-.252-.223-.712,1.024.089v-.193l-5.934-3.086.148-.312,5.162,1.988c.519-1.127,0-1.6-.979-2.077q-3.471-1.78-6.794-3.887l3.189.608.178-.5-17.4-10.681.3-.371,21.213,12.4.267-.43Q49.08,35.659,44.452,32.4c-2.047-1.483-4.154-2.789-6.127-4.317a21.212,21.212,0,0,1-2.537-2.8c.415.208.786.356,1.113.564,1.558,1.024,3.056,2.121,4.643,3.086,4.45,2.774,9.034,5.489,13.736,8.025l-6.29-4.866.208-.3,9.894,6.839.223-.223-1.587-1.261.119-.193,1.483.727.193-.237-3.471-2.907.089-.178,1.587.682.119-.208L43.784,21.967l.178-.208L61.333,36.3l.267-.312L55.118,30.2c.8.1,1.261,0,1.483.208,1.305,1.068,2.537,2.21,3.827,3.278a4.139,4.139,0,0,0,1.172.475c-.119-.43-.1-.979-.371-1.261-2.6-2.744-5.251-5.429-7.877-8.144a2.344,2.344,0,0,1-.786-1.35l10,9.286.223-.223-7.907-8.1.312-.312,7.832,7.921.341-.312L57.432,25.2l.312-.312,7.046,7.417-.564-1.9,1.483,1.365.371-.208A13.854,13.854,0,0,0,64.953,29.1c-2.255-2.967-4.613-5.934-6.928-8.9l.341-.282,7.907,9.716.371-.267-3.8-5.088.326-.252,5.058,6.379.326-.208-1.483-3.1.267-.208L69.4,28.836l.386-.267c-1.231-3.071-3.649-5.489-4.9-8.574l5.934,7.818.727-.43-1.394-3.59,3.056,2.967.415-.326-3.2-6.468.237-.119,4.3,6.349.46-.178-.608-2.21.148-.089,1.157,1.78.267-.134-2.032-4.539.282-.148a18.292,18.292,0,0,0,1.187,2.106,15.354,15.354,0,0,0,1.706,1.647l-.475-2.388,1.038.875.267-.193L73.289,8.246l.415-.163c.712,1.958,1.483,3.9,2.151,5.859.979,2.7,1.9,5.414,2.967,8.07.237.593,1.009.979,1.483,1.483l.386-.223L76.82,8.691l.415-.134,2.551,8.515.312-1.483h.282l.89,2.789.312-.089-2.032-7.847.356-.119a6.023,6.023,0,0,1,.4.9c.653,2.655,1.231,5.325,1.943,7.951a8.263,8.263,0,0,0,1.35,3.056c.415.475,1.483.356,2.537.534l-1.142-8.441h.237L86.714,22.2c1.127-3.115,0-5.77-.178-8.426l.46-.134c.935,2.8,1.854,5.607,2.789,8.411h.356l.178-1.647H90.6l.178,1.483h.415l-.089-2.017h.267l.43,2.136h.46l.193-7.966h.356l.163,7.921.608-1.142.816,1.068a3.768,3.768,0,0,0,.5-1.157c.1-1.32.1-2.655.148-3.99h.415v4.079l.8-.534.089,1.81c.252-.3.46-.43.519-.623A38.569,38.569,0,0,0,98.6,11.761c.089-1.483.312-2.848.475-4.257h.4c-.223,2.433-.519,4.866-.638,7.313s0,4.777,0,7.15h.43l1.795-4.45.979,5.266a8.9,8.9,0,0,0,.46-1.157c.653-2.967,1.216-5.934,1.973-8.9.846-3.293,1.884-6.542,2.967-9.776l-4.154,19.359,1.81.682.92-1.617.163,2.418h.415l2.329-6.824.415.1c-.326,1.068-.727,2.106-.979,3.189s-1.068,1.928-.579,3.382c1.483-2.67,1.483-5.934,4.243-7.654-.593,1.854-1.157,3.59-1.706,5.325l.341.134,2.136-5,.386.148c-1.127,2.863-2.24,5.711-3.412,8.678l.475.193q2.967-5.756,5.815-11.526l.237.089-4.079,9.746.579.282a9.167,9.167,0,0,1,.964-1.75,2.507,2.507,0,0,1,1.632-.816l-2.448,4.836.282.163,2.67-4.762.312.163-2.3,4.762c1.825.267,2.047-1.246,2.7-2.166a15.769,15.769,0,0,1,2.344-2.967l-3.723,6.364.89.682,1.988-.979.252.43-.7,1.246.252.208,3.13-3.976.223.178-1.142,1.854.223.178,2.967-3.976.252.178-3.99,6.275.415.415a39.264,39.264,0,0,0,3.145-2.967c.979-1.113,1.914-2.255,2.863-3.382l.326.282-5.934,7.254.49.475,5.311-4.688.133.1-3.931,5.014.163.178a36.82,36.82,0,0,0,3.219-2.477c3.2-3.16,6.349-6.408,9.509-9.613.282-.282.579-.534.875-.8l.312.312L122.954,34l2.818-.727-1.661,1.958.964,1.187,1.305-.9.178.178-.935,1.083.163.223,2.136-1.483.208.237-1.394,1.483.163.252,2.967-1.38.3.237-2.789,2.774.089.134,1.825-1.157.133.148-.816,1.024L132.73,38.2l-2.715,2.967.208.282,3.367-1.854.178.326-3.99,2.522.935.7,6.067-2.64.163.267-5.934,3.887c2.092,0,3.293-2.27,5.489-1.335l-4.45,2.433.237.5c2.255.49,3.9-1.305,5.934-1.839s4.065-1.187,6.2-1.6l-9.509,3.99.163.415,5.83-2.255.223.5-8.277,3.812.193.7,3.694-.579a18.972,18.972,0,0,1,4.02-.475l-6.824,2.225.148.445,3.738-1.1.1.178-3.62,2.21.163.4h1.483l-.846,1.35,7.3-1.483.089.415-2.344.475a24.641,24.641,0,0,0-2.566.549c-.608.178-1.483,0-1.9.549l.371.608-1.483.43v.252a17.625,17.625,0,0,0,2.655,0c4.361-.7,8.722-1.483,13.084-2.2a3.723,3.723,0,0,1,2.21.252l-15.383,2.388v.49l2.4-.252v.163l-1.9.638v.371l1.706.163v.312l-4.183.831v.43l5.414-.326V60l-3.62.475,1.928.638-3.471.682v.475a7.417,7.417,0,0,0,2.017.534c4.539,0,9.078-.163,13.618-.267a.831.831,0,0,1,.742.5l-13.588.208V63.7l13.736.178v.386l-12.357.252v.208l1.78.282v.49h-6.023l-.148.549,4.094,1.335-4.45.875,1.038.549-.771.727,2.863.534v.312l-2.715-.163,1.068,2.818,1.647.5v.282l-4.005-.682-.119.623,6.067,1.721-.089.371-4.955-1.157-.252.475a6.467,6.467,0,0,0,1.35.771c3.679,1.142,7.417,2.24,11.051,3.353.341.1.682.237,1.024.356l-.133.371-13.351-3.887-.193.623,4.257,1.483-.119.386c-1.231-.386-2.433-.846-3.694-1.127a8.8,8.8,0,0,0-2.166,0l1.172,1.647-1.053.638,13.781,5.83-.163.4-10.74-4.45c4.6,3.812,10.295,5.548,15.279,8.663l-12.683-5.845-.178.341,19.537,9.346-.178.4c-.786-.371-1.558-.8-2.373-1.1a63.981,63.981,0,0,1-6.29-2.136c-5.815-2.729-11.541-5.637-17.311-8.485a10.293,10.293,0,0,0-1.142-.356l1.157,1.35-1.483-.1,2.077,1.75-1.409-.445a1.069,1.069,0,0,0-.178.163c.43.7.712,1.617,1.32,2.062,2.967,2.136,5.934,4.139,8.9,6.186.148.1.267.252.208.638l-8.9-5.592c1.721,3.946,5.311,5.34,8.233,7.506l3.353,2.537-.267.386-13.9-9.761-.267.312,4.45,3.545-.267.312-5.934-4.361-.816,1.365L133.19,97.3v.148l-2.4-1.78-.178.163,1.32,1.32-.193.237-4.45-3.545-.208.252,2.8,2.685-.237.282-3.812-3.293-.252.267,4.45,4.45-.3.312-5.489-5.058c-.846,1.305.089,1.973.816,2.744.9.994,1.839,1.988,2.64,3.056a6.141,6.141,0,0,1,.534,1.81c-2.685-1.483-3.59-4.747-7.135-5.281.593.875.949,1.483,1.394,2.062a60.2,60.2,0,0,1,5.934,7.313c2.433,4.139,5.8,7.521,8.589,11.348a4.482,4.482,0,0,1-.089.682l-13.6-16.733-.3.208q2.626,3.456,5.266,6.868l-.5.371-6.661-8.648-.282.208,2.566,3.5-.282.223-2.8-3.516-.43.282,3.264,4.717-.326.237-3.086-4.124-.5.356q5.251,8.144,10.532,16.318l-.312.193L118.252,101.4l-.326.223,6.26,9.761-.386.252-7.3-11.289-.534.312,8.663,14.6-.371.223-7.788-12.861c-1.113,4.317,2.507,6.735,2.64,10.384l-5.207-9.583-.386.193,8.678,18.216-.193.148a2.833,2.833,0,0,1-.49-.549c-2.6-5.266-5.162-10.547-7.773-15.813-.193-.386-.089-1.483-1.1-.638a6.513,6.513,0,0,1-.549-.757,7.788,7.788,0,0,0-1.483-2.418l5.073,12.03-.386.178-3.264-7.328-.445.119.267,1.825-.326.089-2.077-4.732-.49.163c1.142,3.679,2.284,7.417,3.412,11.022l-.326.119q-2.225-5.207-4.45-10.384h-.133l.593,2.967-1.483-1.973,2.077,10.517-.223.089-2.967-9.954-.4.074.86,4.361-.371.119-1.943-7.031h-.148l3.323,17.03-.564-1.676q-1.394-4.035-2.833-8.085h-.579l-.089,2.566a10.056,10.056,0,0,1-1.127-1.736,15.767,15.767,0,0,1-.46-2.24c-.133-.7-.282-1.394-.326-1.617l-2.106-1.1.623,6.245h-.252l-1.483-5.934L95.941,109.4l-.282-3.545h-.3l-.964,4.925-.386-1.943h-.282L93.6,123.181h-.46v-7.921h-.252l-.356,17.934h-.46l.415-24.847h-.519l-1.38,25.485h-.415l.43-10.161h-.43l-.46,6.557H89.34c.089-1.973.193-3.931.267-5.934.163-4.346.326-8.693.415-13.039,0-.46-.386-.9-.949-1.305l-1.335,8.9H87.4l.89-9.672h-.5l-3.234,18.365h-.312a20.917,20.917,0,0,1,0-3.189c.593-4.317,1.291-8.619,1.765-12.965l-2.967,13.247h-.5c.193-1.305.356-2.611.564-3.916s.475-2.67.712-4.005l-.46-.089-2.388,11.867h-.43q1.75-9.761,3.575-19.551l-.7-.134Q80.1,123.047,76.82,137.273l-.5-.119,5.711-24.64h-.312l-2.047,7.966h-.3c.92-4.287,1.854-8.559,2.789-12.846l-.46-.193-.252,1.038-.312-.148.089-1.009-.3-.089L74.15,126.845,73.7,126.7l5.934-19.462-.445-.148L75.678,117.47l-.445-.148,4.035-11.941-.312-.119c-.178.371-.386.742-.534,1.127a11.868,11.868,0,0,1-.4,1.231c-.119.223-.415.356-.653.534l-.252-.312L69.284,128l-.415-.163,3.976-10.592-.223-.089-.831,1.483-.267-.119,6.127-16.644-3.056,4.584L74,106.211l.9-3.367-.252-.267-2.284,2.255.9-2.24-.252-.148-1.587,2.67v-1.587l-5.3,8.544-.312-.193,4.821-8.693-.4-.312-1.172,1.365h-.208L70.886,100l-.267-.178L68.9,102.1l-.252-.148L69.8,99.876l-.4-.237-13.351,19.6-.5-.356L65.932,102.8l-.371-.267L60,109.266l-.326-.237,6.141-8.366-.386-.3L52.64,116.446c3.664-6.542,9.776-11.393,12.431-18.572l-.445-.356-3.189,3.308-.178-.119.727-1.261-1.053.43c1.246-2.2,3.531-3.456,3.961-5.934l-6.275,5.934-.193-.178,5.414-6.75-.475-.445q-5.073,4.45-10.161,9.019c-.4.356-.831.682-1.261,1.009l-.475-.267Zm51.148.193c.727.089,1.483.415,1.958.208,1.6-.638,3.13-1.483,4.717-2.21.5-.237,1.305,0,1.632-.371.608-.653,1.024-1.365,2.077-.86a1.019,1.019,0,0,0,.564-.326,6.171,6.171,0,0,1,3.887-2.685c.682-.163,1.246-.92,1.825-1.483.979-.92,1.914-1.869,2.863-2.818a9.346,9.346,0,0,0,1.053-1.113c1.276-1.706,2.507-3.442,3.768-5.162a9.331,9.331,0,0,0,1.113-1.483c.4-.964.534-2.032.949-2.967,3.293-7.417,4.791-15.1,3.145-23.171a50.866,50.866,0,0,0-2.448-8.767,38.806,38.806,0,0,0-23.542-22.058,36.7,36.7,0,0,0-17.949-1.78,31.152,31.152,0,0,0-9.761,2.581,53.4,53.4,0,0,0-6.794,3.5,39.925,39.925,0,0,0-3.9,2.537,20.486,20.486,0,0,0-3.234,3.738c-.86,1.246-2.611,1.676-2.967,3.412,0,.252-.638.356-.831.623-.475.653-.846,1.38-1.291,2.047-.119.193-.445.267-.534.46-.341.712-.623,1.483-.964,2.2a20.321,20.321,0,0,0-1.142,2.181c-.371,1.053-.5,2.181-.86,3.234-.282.771-1.127,1.483-1.083,2.2A5.934,5.934,0,0,1,53.738,56.9a7.314,7.314,0,0,1,.5,2.017c-.1,1.187-.92,2.566-.519,3.486.875,2.092,0,4.183.593,6.29s.623,4.45,1.409,6.646c.193.534-.1,1.261-.178,1.958.386.371,1.2.816,1.483,1.483a4.287,4.287,0,0,1,.1,1.943c.593.445,1.157.653,1.2.949.237,1.483,2.373,2.255,1.365,4.094a1.46,1.46,0,0,0,.193.312c1.083.875,2.21,1.721,3.249,2.655.727.638,1.483,1.335.682,2.284h1.483v1.1c.415,0,1.038,0,1.187.193A7.209,7.209,0,0,1,67.178,94a11.526,11.526,0,0,1,2.136.89,16.321,16.321,0,0,1,1.914,1.721,3.842,3.842,0,0,1,1.483.49,10.622,10.622,0,0,0,1.973,1.142c1.617.8,3.278,1.483,4.91,2.21.593.267,1.038.979,1.617,1.083,1.483.252,2.967.282,4.45.386l.712,1.825.742-1.483.475,1.1.7-.875,1.483,1.869,1.053-1.9.682,2.032.445-1.647.534-.757,1.483.935a1.825,1.825,0,0,1,2.581.8l.475-.92.415.816a4.287,4.287,0,0,1,5.133-.86Z" transform="translate(-16 -2.95)" fill="#82afd4"/>
    <path id="Path_8" data-name="Path 8" d="M42.5,69.33v.757L40.218,71.97l-5.3,4.628-.282-.341Z" transform="translate(-6.989 29.139)" fill="#82afd4"/>
    <path id="Path_9" data-name="Path 9" d="M39.966,71.724l2.21-1.884.475.267-7.165,6.928-.326-.312c.964-.9,1.943-1.795,2.848-2.729A24.89,24.89,0,0,0,39.966,71.724Z" transform="translate(-6.738 29.386)" fill="#82afd4"/>
    <path id="Path_10" data-name="Path 10" d="M55.253,63.832,57.2,62.526l-.119-.178L55.015,63.4a20.427,20.427,0,0,1-2.967-9.746l4.969-.282A19.166,19.166,0,0,0,80.589,70.047a18.825,18.825,0,0,0-5.934-37.085c-10.176.7-17.564,9.064-17.519,19.8l-5.088.341a3.174,3.174,0,0,1-.148-.475c.148-2.225.148-2.225,2.418-2.225a5.444,5.444,0,0,0,1.869-.208l-4.139-.445a24.046,24.046,0,1,1,3.189,14.078Z" transform="translate(1.355 9.004)" fill="#fff"/>
    <path id="Path_11" data-name="Path 11" d="M88.828,24.876l-1.691,4.747C67.052,22.815,46.967,40.66,53.6,62.659L49.014,64.32c-3.961-9.375-2.047-23.379,7.373-32.413a31.033,31.033,0,0,1,32.442-7.031Z" transform="translate(-0.981 6.735)" fill="#fff"/>
    <path id="Path_12" data-name="Path 12" d="M82,61.123a5.311,5.311,0,0,1,.5-1.305A25.129,25.129,0,0,0,87.311,43.5a3.988,3.988,0,0,1,0-.593,3.249,3.249,0,0,1,.148-.5l5.385-.252-.86.964a5.429,5.429,0,0,1,.593,1.75c-.163,2.314-.445,4.628-.682,7.061l-4.569-.964v.223l4.257,1.187a28.749,28.749,0,0,1-5.459,11.274L82.3,61.331Z" transform="translate(15.905 16)" fill="#fff"/>
    <path id="Path_13" data-name="Path 13" d="M87.429,54.94l.3.208,3.412,3.1-4.45,4.376-1.958-2.27-.208.148,1.721,2.344A29.194,29.194,0,0,1,74.464,68.78L73.41,65.813h-.119l.608,3.056-2.166.43-.964-4.925c1.483-.46,3.086-.875,4.613-1.365A24.907,24.907,0,0,0,86,55.993,9.4,9.4,0,0,1,87.429,54.94Z" transform="translate(10.477 22.183)" fill="#fff"/>
    <path id="Path_14" data-name="Path 14" d="M74.78,29.307,76.8,24.56a29.743,29.743,0,0,1,12.4,9.182l-1.691,1.483.1.148,1.914-1.335,2.967,4.376c-1.38.771-2.655,1.483-3.976,2.2a1.127,1.127,0,0,1-1.038-.356,26.375,26.375,0,0,0-12.7-10.948Z" transform="translate(12.415 7.497)" fill="#fff"/>
    <path id="Path_15" data-name="Path 15" d="M69.239,65.451,68.9,67.32,60.25,65.258,62.238,60.2a27,27,0,0,0,13.455,1.632l.5,5.162-6.779.223v-1.75Z" transform="translate(5.391 24.726)" fill="#fff"/>
    <path id="Path_16" data-name="Path 16" d="M54.986,54.87c.356.089.86,0,1.053.282a28.185,28.185,0,0,0,9.88,7.417l-2.077,4.717A31.152,31.152,0,0,1,51.53,57.9l2.477-2.433Z" transform="translate(1.176 22.149)" fill="#fff"/>
    <path id="Path_17" data-name="Path 17" d="M84.06,36.881l4.45-2.121a29.476,29.476,0,0,1,2.967,10.458l-4.88.638Z" transform="translate(16.901 12.427)" fill="#fff"/>
    <path id="Path_18" data-name="Path 18" d="M56.567,57.181l-.979.564-3.041,1.988L48.26,51.9l4.851-1.81c1.142,1.973,2.3,3.9,3.382,5.934C56.671,56.291,56.552,56.765,56.567,57.181Z" transform="translate(-0.405 19.838)" fill="#fff"/>
  </g>
</svg>
